<mxfile host="app.diagrams.net" agent="Mozilla/5.0 (Windows NT 10.0; Win64; x64) AppleWebKit/537.36 (KHTML, like Gecko) Chrome/136.0.0.0 Safari/537.36" version="27.1.3">
  <diagram id="C5RBs43oDa-KdzZeNtuy" name="Page-1">
    <mxGraphModel dx="5380" dy="2484" grid="1" gridSize="10" guides="1" tooltips="1" connect="1" arrows="1" fold="1" page="1" pageScale="1" pageWidth="827" pageHeight="1169" math="0" shadow="0">
      <root>
        <mxCell id="WIyWlLk6GJQsqaUBKTNV-0" />
        <mxCell id="WIyWlLk6GJQsqaUBKTNV-1" parent="WIyWlLk6GJQsqaUBKTNV-0" />
        <mxCell id="kpQcfJ6aBJUCtAHp5x6C-29" style="edgeStyle=orthogonalEdgeStyle;rounded=0;orthogonalLoop=1;jettySize=auto;html=1;" edge="1" parent="WIyWlLk6GJQsqaUBKTNV-1" source="kpQcfJ6aBJUCtAHp5x6C-18" target="kpQcfJ6aBJUCtAHp5x6C-28">
          <mxGeometry relative="1" as="geometry" />
        </mxCell>
        <mxCell id="kpQcfJ6aBJUCtAHp5x6C-18" value="Visit login page" style="strokeWidth=2;html=1;shape=mxgraph.flowchart.start_1;whiteSpace=wrap;" vertex="1" parent="WIyWlLk6GJQsqaUBKTNV-1">
          <mxGeometry x="250" y="130" width="100" height="60" as="geometry" />
        </mxCell>
        <mxCell id="kpQcfJ6aBJUCtAHp5x6C-23" style="edgeStyle=orthogonalEdgeStyle;rounded=0;orthogonalLoop=1;jettySize=auto;html=1;entryX=0;entryY=0.5;entryDx=0;entryDy=0;" edge="1" parent="WIyWlLk6GJQsqaUBKTNV-1" source="kpQcfJ6aBJUCtAHp5x6C-19" target="kpQcfJ6aBJUCtAHp5x6C-22">
          <mxGeometry relative="1" as="geometry" />
        </mxCell>
        <mxCell id="kpQcfJ6aBJUCtAHp5x6C-19" value="Enter email &amp;amp; password&amp;nbsp;&amp;nbsp;" style="shape=parallelogram;perimeter=parallelogramPerimeter;whiteSpace=wrap;html=1;fixedSize=1;" vertex="1" parent="WIyWlLk6GJQsqaUBKTNV-1">
          <mxGeometry x="80" y="400" width="120" height="60" as="geometry" />
        </mxCell>
        <mxCell id="kpQcfJ6aBJUCtAHp5x6C-26" style="edgeStyle=orthogonalEdgeStyle;rounded=0;orthogonalLoop=1;jettySize=auto;html=1;" edge="1" parent="WIyWlLk6GJQsqaUBKTNV-1" source="kpQcfJ6aBJUCtAHp5x6C-21" target="kpQcfJ6aBJUCtAHp5x6C-25">
          <mxGeometry relative="1" as="geometry" />
        </mxCell>
        <mxCell id="kpQcfJ6aBJUCtAHp5x6C-27" value="No" style="edgeLabel;html=1;align=center;verticalAlign=middle;resizable=0;points=[];" vertex="1" connectable="0" parent="kpQcfJ6aBJUCtAHp5x6C-26">
          <mxGeometry x="0.0553" y="-3" relative="1" as="geometry">
            <mxPoint as="offset" />
          </mxGeometry>
        </mxCell>
        <mxCell id="kpQcfJ6aBJUCtAHp5x6C-46" style="edgeStyle=orthogonalEdgeStyle;rounded=0;orthogonalLoop=1;jettySize=auto;html=1;" edge="1" parent="WIyWlLk6GJQsqaUBKTNV-1" source="kpQcfJ6aBJUCtAHp5x6C-21">
          <mxGeometry relative="1" as="geometry">
            <mxPoint x="505" y="660" as="targetPoint" />
          </mxGeometry>
        </mxCell>
        <mxCell id="kpQcfJ6aBJUCtAHp5x6C-47" value="Yes" style="edgeLabel;html=1;align=center;verticalAlign=middle;resizable=0;points=[];" vertex="1" connectable="0" parent="kpQcfJ6aBJUCtAHp5x6C-46">
          <mxGeometry x="-0.6557" y="-3" relative="1" as="geometry">
            <mxPoint as="offset" />
          </mxGeometry>
        </mxCell>
        <mxCell id="kpQcfJ6aBJUCtAHp5x6C-21" value="User credential already in database" style="rhombus;whiteSpace=wrap;html=1;" vertex="1" parent="WIyWlLk6GJQsqaUBKTNV-1">
          <mxGeometry x="440" y="380" width="130" height="100" as="geometry" />
        </mxCell>
        <mxCell id="kpQcfJ6aBJUCtAHp5x6C-24" style="edgeStyle=orthogonalEdgeStyle;rounded=0;orthogonalLoop=1;jettySize=auto;html=1;entryX=0;entryY=0.5;entryDx=0;entryDy=0;" edge="1" parent="WIyWlLk6GJQsqaUBKTNV-1" source="kpQcfJ6aBJUCtAHp5x6C-22" target="kpQcfJ6aBJUCtAHp5x6C-21">
          <mxGeometry relative="1" as="geometry" />
        </mxCell>
        <mxCell id="kpQcfJ6aBJUCtAHp5x6C-22" value="Check users collection" style="html=1;dashed=0;whiteSpace=wrap;" vertex="1" parent="WIyWlLk6GJQsqaUBKTNV-1">
          <mxGeometry x="280" y="405" width="100" height="50" as="geometry" />
        </mxCell>
        <mxCell id="kpQcfJ6aBJUCtAHp5x6C-33" style="edgeStyle=orthogonalEdgeStyle;rounded=0;orthogonalLoop=1;jettySize=auto;html=1;entryX=0.444;entryY=1.065;entryDx=0;entryDy=0;entryPerimeter=0;" edge="1" parent="WIyWlLk6GJQsqaUBKTNV-1" source="kpQcfJ6aBJUCtAHp5x6C-25" target="kpQcfJ6aBJUCtAHp5x6C-19">
          <mxGeometry relative="1" as="geometry">
            <mxPoint x="650" y="650" as="targetPoint" />
            <Array as="points">
              <mxPoint x="690" y="552" />
              <mxPoint x="133" y="552" />
            </Array>
          </mxGeometry>
        </mxCell>
        <mxCell id="kpQcfJ6aBJUCtAHp5x6C-25" value="Login failed&lt;div&gt;Respond 401&lt;/div&gt;" style="html=1;dashed=0;whiteSpace=wrap;" vertex="1" parent="WIyWlLk6GJQsqaUBKTNV-1">
          <mxGeometry x="640" y="405" width="100" height="50" as="geometry" />
        </mxCell>
        <mxCell id="kpQcfJ6aBJUCtAHp5x6C-35" style="edgeStyle=orthogonalEdgeStyle;rounded=0;orthogonalLoop=1;jettySize=auto;html=1;" edge="1" parent="WIyWlLk6GJQsqaUBKTNV-1" source="kpQcfJ6aBJUCtAHp5x6C-28" target="kpQcfJ6aBJUCtAHp5x6C-34">
          <mxGeometry relative="1" as="geometry" />
        </mxCell>
        <mxCell id="kpQcfJ6aBJUCtAHp5x6C-36" value="No" style="edgeLabel;html=1;align=center;verticalAlign=middle;resizable=0;points=[];" vertex="1" connectable="0" parent="kpQcfJ6aBJUCtAHp5x6C-35">
          <mxGeometry x="0.217" y="-1" relative="1" as="geometry">
            <mxPoint x="-15" y="-1" as="offset" />
          </mxGeometry>
        </mxCell>
        <mxCell id="kpQcfJ6aBJUCtAHp5x6C-28" value="Already have account ?" style="strokeWidth=2;html=1;shape=mxgraph.flowchart.decision;whiteSpace=wrap;" vertex="1" parent="WIyWlLk6GJQsqaUBKTNV-1">
          <mxGeometry x="250" y="240" width="100" height="100" as="geometry" />
        </mxCell>
        <mxCell id="kpQcfJ6aBJUCtAHp5x6C-30" style="edgeStyle=orthogonalEdgeStyle;rounded=0;orthogonalLoop=1;jettySize=auto;html=1;entryX=0.917;entryY=0;entryDx=0;entryDy=0;entryPerimeter=0;" edge="1" parent="WIyWlLk6GJQsqaUBKTNV-1" source="kpQcfJ6aBJUCtAHp5x6C-28" target="kpQcfJ6aBJUCtAHp5x6C-19">
          <mxGeometry relative="1" as="geometry" />
        </mxCell>
        <mxCell id="kpQcfJ6aBJUCtAHp5x6C-31" value="Yes" style="edgeLabel;html=1;align=center;verticalAlign=middle;resizable=0;points=[];" vertex="1" connectable="0" parent="kpQcfJ6aBJUCtAHp5x6C-30">
          <mxGeometry x="-0.5717" y="-4" relative="1" as="geometry">
            <mxPoint x="6" y="4" as="offset" />
          </mxGeometry>
        </mxCell>
        <mxCell id="kpQcfJ6aBJUCtAHp5x6C-57" style="edgeStyle=orthogonalEdgeStyle;rounded=0;orthogonalLoop=1;jettySize=auto;html=1;" edge="1" parent="WIyWlLk6GJQsqaUBKTNV-1" source="kpQcfJ6aBJUCtAHp5x6C-34" target="kpQcfJ6aBJUCtAHp5x6C-56">
          <mxGeometry relative="1" as="geometry" />
        </mxCell>
        <mxCell id="kpQcfJ6aBJUCtAHp5x6C-34" value="Fill register email, username &amp;amp; password&amp;nbsp;&amp;nbsp;" style="shape=parallelogram;perimeter=parallelogramPerimeter;whiteSpace=wrap;html=1;fixedSize=1;" vertex="1" parent="WIyWlLk6GJQsqaUBKTNV-1">
          <mxGeometry x="414" y="250" width="156" height="80" as="geometry" />
        </mxCell>
        <mxCell id="kpQcfJ6aBJUCtAHp5x6C-37" value="Users database" style="strokeWidth=2;html=1;shape=mxgraph.flowchart.database;whiteSpace=wrap;" vertex="1" parent="WIyWlLk6GJQsqaUBKTNV-1">
          <mxGeometry x="930" y="250" width="90" height="100" as="geometry" />
        </mxCell>
        <mxCell id="kpQcfJ6aBJUCtAHp5x6C-50" style="edgeStyle=orthogonalEdgeStyle;rounded=0;orthogonalLoop=1;jettySize=auto;html=1;" edge="1" parent="WIyWlLk6GJQsqaUBKTNV-1" source="kpQcfJ6aBJUCtAHp5x6C-39" target="kpQcfJ6aBJUCtAHp5x6C-48">
          <mxGeometry relative="1" as="geometry">
            <Array as="points">
              <mxPoint x="680" y="170" />
              <mxPoint x="1190" y="170" />
              <mxPoint x="1190" y="685" />
            </Array>
          </mxGeometry>
        </mxCell>
        <mxCell id="kpQcfJ6aBJUCtAHp5x6C-39" value="Create user account" style="html=1;dashed=0;whiteSpace=wrap;" vertex="1" parent="WIyWlLk6GJQsqaUBKTNV-1">
          <mxGeometry x="630" y="265" width="100" height="50" as="geometry" />
        </mxCell>
        <mxCell id="kpQcfJ6aBJUCtAHp5x6C-44" value="" style="endArrow=none;dashed=1;html=1;dashPattern=1 3;strokeWidth=2;rounded=0;exitX=0.5;exitY=0;exitDx=0;exitDy=0;entryX=0.423;entryY=1.015;entryDx=0;entryDy=0;entryPerimeter=0;" edge="1" parent="WIyWlLk6GJQsqaUBKTNV-1" source="kpQcfJ6aBJUCtAHp5x6C-22" target="kpQcfJ6aBJUCtAHp5x6C-37">
          <mxGeometry width="50" height="50" relative="1" as="geometry">
            <mxPoint x="340" y="400" as="sourcePoint" />
            <mxPoint x="390" y="350" as="targetPoint" />
            <Array as="points">
              <mxPoint x="330" y="350" />
              <mxPoint x="810" y="350" />
            </Array>
          </mxGeometry>
        </mxCell>
        <mxCell id="kpQcfJ6aBJUCtAHp5x6C-45" value="Account Validate" style="edgeLabel;html=1;align=center;verticalAlign=middle;resizable=0;points=[];" vertex="1" connectable="0" parent="kpQcfJ6aBJUCtAHp5x6C-44">
          <mxGeometry x="-0.1884" y="2" relative="1" as="geometry">
            <mxPoint as="offset" />
          </mxGeometry>
        </mxCell>
        <mxCell id="kpQcfJ6aBJUCtAHp5x6C-64" style="edgeStyle=orthogonalEdgeStyle;rounded=0;orthogonalLoop=1;jettySize=auto;html=1;entryX=0.5;entryY=0;entryDx=0;entryDy=0;" edge="1" parent="WIyWlLk6GJQsqaUBKTNV-1" source="kpQcfJ6aBJUCtAHp5x6C-48" target="kpQcfJ6aBJUCtAHp5x6C-63">
          <mxGeometry relative="1" as="geometry" />
        </mxCell>
        <mxCell id="kpQcfJ6aBJUCtAHp5x6C-48" value="Navigate to Home page" style="html=1;dashed=0;whiteSpace=wrap;" vertex="1" parent="WIyWlLk6GJQsqaUBKTNV-1">
          <mxGeometry x="455" y="660" width="100" height="50" as="geometry" />
        </mxCell>
        <mxCell id="kpQcfJ6aBJUCtAHp5x6C-52" value="" style="endArrow=none;dashed=1;html=1;dashPattern=1 3;strokeWidth=2;rounded=0;exitX=1;exitY=0.5;exitDx=0;exitDy=0;entryX=-0.02;entryY=0.401;entryDx=0;entryDy=0;entryPerimeter=0;" edge="1" parent="WIyWlLk6GJQsqaUBKTNV-1" source="kpQcfJ6aBJUCtAHp5x6C-39" target="kpQcfJ6aBJUCtAHp5x6C-37">
          <mxGeometry width="50" height="50" relative="1" as="geometry">
            <mxPoint x="740" y="280" as="sourcePoint" />
            <mxPoint x="790" y="230" as="targetPoint" />
          </mxGeometry>
        </mxCell>
        <mxCell id="kpQcfJ6aBJUCtAHp5x6C-53" value="Save account" style="edgeLabel;html=1;align=center;verticalAlign=middle;resizable=0;points=[];" vertex="1" connectable="0" parent="kpQcfJ6aBJUCtAHp5x6C-52">
          <mxGeometry x="-0.0716" y="1" relative="1" as="geometry">
            <mxPoint as="offset" />
          </mxGeometry>
        </mxCell>
        <mxCell id="kpQcfJ6aBJUCtAHp5x6C-59" style="edgeStyle=orthogonalEdgeStyle;rounded=0;orthogonalLoop=1;jettySize=auto;html=1;entryX=0;entryY=0.5;entryDx=0;entryDy=0;" edge="1" parent="WIyWlLk6GJQsqaUBKTNV-1" source="kpQcfJ6aBJUCtAHp5x6C-56" target="kpQcfJ6aBJUCtAHp5x6C-39">
          <mxGeometry relative="1" as="geometry" />
        </mxCell>
        <mxCell id="kpQcfJ6aBJUCtAHp5x6C-60" value="No" style="edgeLabel;html=1;align=center;verticalAlign=middle;resizable=0;points=[];" vertex="1" connectable="0" parent="kpQcfJ6aBJUCtAHp5x6C-59">
          <mxGeometry x="-0.239" y="-3" relative="1" as="geometry">
            <mxPoint as="offset" />
          </mxGeometry>
        </mxCell>
        <mxCell id="kpQcfJ6aBJUCtAHp5x6C-61" style="edgeStyle=orthogonalEdgeStyle;rounded=0;orthogonalLoop=1;jettySize=auto;html=1;" edge="1" parent="WIyWlLk6GJQsqaUBKTNV-1" source="kpQcfJ6aBJUCtAHp5x6C-56" target="kpQcfJ6aBJUCtAHp5x6C-18">
          <mxGeometry relative="1" as="geometry" />
        </mxCell>
        <mxCell id="kpQcfJ6aBJUCtAHp5x6C-62" value="Yes" style="edgeLabel;html=1;align=center;verticalAlign=middle;resizable=0;points=[];" vertex="1" connectable="0" parent="kpQcfJ6aBJUCtAHp5x6C-61">
          <mxGeometry x="-0.1794" y="-2" relative="1" as="geometry">
            <mxPoint as="offset" />
          </mxGeometry>
        </mxCell>
        <mxCell id="kpQcfJ6aBJUCtAHp5x6C-56" value="User credential already in database" style="rhombus;whiteSpace=wrap;html=1;" vertex="1" parent="WIyWlLk6GJQsqaUBKTNV-1">
          <mxGeometry x="427" y="70" width="130" height="100" as="geometry" />
        </mxCell>
        <mxCell id="kpQcfJ6aBJUCtAHp5x6C-69" style="edgeStyle=orthogonalEdgeStyle;rounded=0;orthogonalLoop=1;jettySize=auto;html=1;entryX=0.5;entryY=0;entryDx=0;entryDy=0;" edge="1" parent="WIyWlLk6GJQsqaUBKTNV-1" source="kpQcfJ6aBJUCtAHp5x6C-63" target="kpQcfJ6aBJUCtAHp5x6C-66">
          <mxGeometry relative="1" as="geometry" />
        </mxCell>
        <mxCell id="kpQcfJ6aBJUCtAHp5x6C-71" style="edgeStyle=orthogonalEdgeStyle;rounded=0;orthogonalLoop=1;jettySize=auto;html=1;entryX=0.5;entryY=0;entryDx=0;entryDy=0;" edge="1" parent="WIyWlLk6GJQsqaUBKTNV-1" source="kpQcfJ6aBJUCtAHp5x6C-63" target="kpQcfJ6aBJUCtAHp5x6C-65">
          <mxGeometry relative="1" as="geometry" />
        </mxCell>
        <mxCell id="kpQcfJ6aBJUCtAHp5x6C-63" value="Choose services" style="rhombus;whiteSpace=wrap;html=1;" vertex="1" parent="WIyWlLk6GJQsqaUBKTNV-1">
          <mxGeometry x="465" y="770" width="80" height="80" as="geometry" />
        </mxCell>
        <mxCell id="kpQcfJ6aBJUCtAHp5x6C-65" value="Visit calendar page" style="html=1;dashed=0;whiteSpace=wrap;" vertex="1" parent="WIyWlLk6GJQsqaUBKTNV-1">
          <mxGeometry x="620" y="910" width="100" height="50" as="geometry" />
        </mxCell>
        <mxCell id="kpQcfJ6aBJUCtAHp5x6C-73" style="edgeStyle=orthogonalEdgeStyle;rounded=0;orthogonalLoop=1;jettySize=auto;html=1;entryX=0.5;entryY=0;entryDx=0;entryDy=0;" edge="1" parent="WIyWlLk6GJQsqaUBKTNV-1" source="kpQcfJ6aBJUCtAHp5x6C-66" target="kpQcfJ6aBJUCtAHp5x6C-72">
          <mxGeometry relative="1" as="geometry" />
        </mxCell>
        <mxCell id="kpQcfJ6aBJUCtAHp5x6C-66" value="Visit chatbot" style="html=1;dashed=0;whiteSpace=wrap;" vertex="1" parent="WIyWlLk6GJQsqaUBKTNV-1">
          <mxGeometry x="290" y="910" width="100" height="50" as="geometry" />
        </mxCell>
        <mxCell id="kpQcfJ6aBJUCtAHp5x6C-72" value="Choose Input type" style="shape=rhombus;html=1;dashed=0;whiteSpace=wrap;perimeter=rhombusPerimeter;" vertex="1" parent="WIyWlLk6GJQsqaUBKTNV-1">
          <mxGeometry x="280" y="1010" width="120" height="80" as="geometry" />
        </mxCell>
        <mxCell id="kpQcfJ6aBJUCtAHp5x6C-81" style="edgeStyle=orthogonalEdgeStyle;rounded=0;orthogonalLoop=1;jettySize=auto;html=1;entryX=0.5;entryY=0;entryDx=0;entryDy=0;" edge="1" parent="WIyWlLk6GJQsqaUBKTNV-1" source="kpQcfJ6aBJUCtAHp5x6C-74" target="kpQcfJ6aBJUCtAHp5x6C-80">
          <mxGeometry relative="1" as="geometry" />
        </mxCell>
        <mxCell id="kpQcfJ6aBJUCtAHp5x6C-74" value="Record user voice" style="shape=parallelogram;perimeter=parallelogramPerimeter;whiteSpace=wrap;html=1;fixedSize=1;" vertex="1" parent="WIyWlLk6GJQsqaUBKTNV-1">
          <mxGeometry x="110" y="1110" width="120" height="60" as="geometry" />
        </mxCell>
        <mxCell id="kpQcfJ6aBJUCtAHp5x6C-75" style="edgeStyle=orthogonalEdgeStyle;rounded=0;orthogonalLoop=1;jettySize=auto;html=1;entryX=0.563;entryY=-0.002;entryDx=0;entryDy=0;entryPerimeter=0;" edge="1" parent="WIyWlLk6GJQsqaUBKTNV-1" source="kpQcfJ6aBJUCtAHp5x6C-72" target="kpQcfJ6aBJUCtAHp5x6C-74">
          <mxGeometry relative="1" as="geometry" />
        </mxCell>
        <mxCell id="kpQcfJ6aBJUCtAHp5x6C-76" value="voice" style="edgeLabel;html=1;align=center;verticalAlign=middle;resizable=0;points=[];" vertex="1" connectable="0" parent="kpQcfJ6aBJUCtAHp5x6C-75">
          <mxGeometry x="-0.1867" y="-3" relative="1" as="geometry">
            <mxPoint x="16" y="-7" as="offset" />
          </mxGeometry>
        </mxCell>
        <mxCell id="kpQcfJ6aBJUCtAHp5x6C-77" value="Input the command&amp;nbsp;" style="shape=parallelogram;perimeter=parallelogramPerimeter;whiteSpace=wrap;html=1;fixedSize=1;" vertex="1" parent="WIyWlLk6GJQsqaUBKTNV-1">
          <mxGeometry x="414" y="1109" width="136" height="61" as="geometry" />
        </mxCell>
        <mxCell id="kpQcfJ6aBJUCtAHp5x6C-78" style="edgeStyle=orthogonalEdgeStyle;rounded=0;orthogonalLoop=1;jettySize=auto;html=1;entryX=0.571;entryY=0.003;entryDx=0;entryDy=0;entryPerimeter=0;" edge="1" parent="WIyWlLk6GJQsqaUBKTNV-1" source="kpQcfJ6aBJUCtAHp5x6C-72" target="kpQcfJ6aBJUCtAHp5x6C-77">
          <mxGeometry relative="1" as="geometry" />
        </mxCell>
        <mxCell id="kpQcfJ6aBJUCtAHp5x6C-79" value="text" style="edgeLabel;html=1;align=center;verticalAlign=middle;resizable=0;points=[];" vertex="1" connectable="0" parent="kpQcfJ6aBJUCtAHp5x6C-78">
          <mxGeometry x="-0.0966" y="-2" relative="1" as="geometry">
            <mxPoint x="-24" y="-12" as="offset" />
          </mxGeometry>
        </mxCell>
        <mxCell id="kpQcfJ6aBJUCtAHp5x6C-83" style="edgeStyle=orthogonalEdgeStyle;rounded=0;orthogonalLoop=1;jettySize=auto;html=1;" edge="1" parent="WIyWlLk6GJQsqaUBKTNV-1" source="kpQcfJ6aBJUCtAHp5x6C-80" target="kpQcfJ6aBJUCtAHp5x6C-82">
          <mxGeometry relative="1" as="geometry" />
        </mxCell>
        <mxCell id="kpQcfJ6aBJUCtAHp5x6C-80" value="Convert voice to text&amp;nbsp;" style="html=1;dashed=0;whiteSpace=wrap;" vertex="1" parent="WIyWlLk6GJQsqaUBKTNV-1">
          <mxGeometry x="120" y="1250" width="100" height="50" as="geometry" />
        </mxCell>
        <mxCell id="kpQcfJ6aBJUCtAHp5x6C-89" style="edgeStyle=orthogonalEdgeStyle;rounded=0;orthogonalLoop=1;jettySize=auto;html=1;entryX=0.5;entryY=0;entryDx=0;entryDy=0;" edge="1" parent="WIyWlLk6GJQsqaUBKTNV-1" source="kpQcfJ6aBJUCtAHp5x6C-82" target="kpQcfJ6aBJUCtAHp5x6C-85">
          <mxGeometry relative="1" as="geometry" />
        </mxCell>
        <mxCell id="kpQcfJ6aBJUCtAHp5x6C-82" value="" style="verticalLabelPosition=bottom;verticalAlign=top;html=1;shape=mxgraph.flowchart.or;" vertex="1" parent="WIyWlLk6GJQsqaUBKTNV-1">
          <mxGeometry x="310" y="1255" width="40" height="40" as="geometry" />
        </mxCell>
        <mxCell id="kpQcfJ6aBJUCtAHp5x6C-84" style="edgeStyle=orthogonalEdgeStyle;rounded=0;orthogonalLoop=1;jettySize=auto;html=1;entryX=0.5;entryY=0;entryDx=0;entryDy=0;entryPerimeter=0;" edge="1" parent="WIyWlLk6GJQsqaUBKTNV-1" source="kpQcfJ6aBJUCtAHp5x6C-77" target="kpQcfJ6aBJUCtAHp5x6C-82">
          <mxGeometry relative="1" as="geometry" />
        </mxCell>
        <mxCell id="kpQcfJ6aBJUCtAHp5x6C-91" style="edgeStyle=orthogonalEdgeStyle;rounded=0;orthogonalLoop=1;jettySize=auto;html=1;entryX=0.5;entryY=0;entryDx=0;entryDy=0;" edge="1" parent="WIyWlLk6GJQsqaUBKTNV-1" source="kpQcfJ6aBJUCtAHp5x6C-85" target="kpQcfJ6aBJUCtAHp5x6C-90">
          <mxGeometry relative="1" as="geometry" />
        </mxCell>
        <mxCell id="kpQcfJ6aBJUCtAHp5x6C-85" value="Receive &amp;amp; parse" style="rounded=0;whiteSpace=wrap;html=1;" vertex="1" parent="WIyWlLk6GJQsqaUBKTNV-1">
          <mxGeometry x="270" y="1340" width="120" height="60" as="geometry" />
        </mxCell>
        <mxCell id="kpQcfJ6aBJUCtAHp5x6C-93" style="edgeStyle=orthogonalEdgeStyle;rounded=0;orthogonalLoop=1;jettySize=auto;html=1;entryX=1;entryY=0.5;entryDx=0;entryDy=0;" edge="1" parent="WIyWlLk6GJQsqaUBKTNV-1" source="kpQcfJ6aBJUCtAHp5x6C-90" target="kpQcfJ6aBJUCtAHp5x6C-92">
          <mxGeometry relative="1" as="geometry" />
        </mxCell>
        <mxCell id="kpQcfJ6aBJUCtAHp5x6C-94" value="No" style="edgeLabel;html=1;align=center;verticalAlign=middle;resizable=0;points=[];" vertex="1" connectable="0" parent="kpQcfJ6aBJUCtAHp5x6C-93">
          <mxGeometry x="-0.2407" y="-2" relative="1" as="geometry">
            <mxPoint x="-6" y="-13" as="offset" />
          </mxGeometry>
        </mxCell>
        <mxCell id="kpQcfJ6aBJUCtAHp5x6C-90" value="Validate JSON ?" style="rhombus;whiteSpace=wrap;html=1;" vertex="1" parent="WIyWlLk6GJQsqaUBKTNV-1">
          <mxGeometry x="270" y="1450" width="120" height="110" as="geometry" />
        </mxCell>
        <mxCell id="kpQcfJ6aBJUCtAHp5x6C-96" style="edgeStyle=orthogonalEdgeStyle;rounded=0;orthogonalLoop=1;jettySize=auto;html=1;" edge="1" parent="WIyWlLk6GJQsqaUBKTNV-1" source="kpQcfJ6aBJUCtAHp5x6C-92">
          <mxGeometry relative="1" as="geometry">
            <mxPoint x="340" y="980" as="targetPoint" />
            <Array as="points">
              <mxPoint x="20" y="1505" />
              <mxPoint x="20" y="980" />
            </Array>
          </mxGeometry>
        </mxCell>
        <mxCell id="kpQcfJ6aBJUCtAHp5x6C-92" value="Return 400/401 Error from chatbot" style="html=1;dashed=0;whiteSpace=wrap;" vertex="1" parent="WIyWlLk6GJQsqaUBKTNV-1">
          <mxGeometry x="50" y="1470" width="130" height="70" as="geometry" />
        </mxCell>
        <mxCell id="kpQcfJ6aBJUCtAHp5x6C-101" style="edgeStyle=orthogonalEdgeStyle;rounded=0;orthogonalLoop=1;jettySize=auto;html=1;" edge="1" parent="WIyWlLk6GJQsqaUBKTNV-1" source="kpQcfJ6aBJUCtAHp5x6C-105" target="kpQcfJ6aBJUCtAHp5x6C-104">
          <mxGeometry relative="1" as="geometry">
            <mxPoint x="565" y="1440" as="sourcePoint" />
            <mxPoint x="565" y="1370" as="targetPoint" />
          </mxGeometry>
        </mxCell>
        <mxCell id="kpQcfJ6aBJUCtAHp5x6C-102" value="Hit" style="edgeLabel;html=1;align=center;verticalAlign=middle;resizable=0;points=[];" vertex="1" connectable="0" parent="kpQcfJ6aBJUCtAHp5x6C-101">
          <mxGeometry x="-0.1562" y="2" relative="1" as="geometry">
            <mxPoint x="12" y="-8" as="offset" />
          </mxGeometry>
        </mxCell>
        <mxCell id="kpQcfJ6aBJUCtAHp5x6C-98" style="edgeStyle=orthogonalEdgeStyle;rounded=0;orthogonalLoop=1;jettySize=auto;html=1;" edge="1" parent="WIyWlLk6GJQsqaUBKTNV-1" source="kpQcfJ6aBJUCtAHp5x6C-90" target="kpQcfJ6aBJUCtAHp5x6C-105">
          <mxGeometry relative="1" as="geometry">
            <mxPoint x="490" y="1505" as="targetPoint" />
          </mxGeometry>
        </mxCell>
        <mxCell id="kpQcfJ6aBJUCtAHp5x6C-99" value="Yes" style="edgeLabel;html=1;align=center;verticalAlign=middle;resizable=0;points=[];" vertex="1" connectable="0" parent="kpQcfJ6aBJUCtAHp5x6C-98">
          <mxGeometry x="0.0476" y="-3" relative="1" as="geometry">
            <mxPoint y="-23" as="offset" />
          </mxGeometry>
        </mxCell>
        <mxCell id="kpQcfJ6aBJUCtAHp5x6C-103" style="edgeStyle=orthogonalEdgeStyle;rounded=0;orthogonalLoop=1;jettySize=auto;html=1;exitX=0.437;exitY=0.045;exitDx=0;exitDy=0;exitPerimeter=0;" edge="1" parent="WIyWlLk6GJQsqaUBKTNV-1" source="kpQcfJ6aBJUCtAHp5x6C-104">
          <mxGeometry relative="1" as="geometry">
            <mxPoint x="340" y="980" as="targetPoint" />
            <mxPoint x="565" y="1240.0000000000005" as="sourcePoint" />
            <Array as="points">
              <mxPoint x="570" y="980" />
            </Array>
          </mxGeometry>
        </mxCell>
        <mxCell id="kpQcfJ6aBJUCtAHp5x6C-104" value="Return cached JSON" style="html=1;dashed=0;whiteSpace=wrap;" vertex="1" parent="WIyWlLk6GJQsqaUBKTNV-1">
          <mxGeometry x="500" y="1270" width="160" height="70" as="geometry" />
        </mxCell>
        <mxCell id="kpQcfJ6aBJUCtAHp5x6C-107" style="edgeStyle=orthogonalEdgeStyle;rounded=0;orthogonalLoop=1;jettySize=auto;html=1;entryX=0.5;entryY=0;entryDx=0;entryDy=0;" edge="1" parent="WIyWlLk6GJQsqaUBKTNV-1" source="kpQcfJ6aBJUCtAHp5x6C-105" target="kpQcfJ6aBJUCtAHp5x6C-106">
          <mxGeometry relative="1" as="geometry" />
        </mxCell>
        <mxCell id="kpQcfJ6aBJUCtAHp5x6C-108" value="Miss" style="edgeLabel;html=1;align=center;verticalAlign=middle;resizable=0;points=[];" vertex="1" connectable="0" parent="kpQcfJ6aBJUCtAHp5x6C-107">
          <mxGeometry x="0.0093" y="1" relative="1" as="geometry">
            <mxPoint x="19" as="offset" />
          </mxGeometry>
        </mxCell>
        <mxCell id="kpQcfJ6aBJUCtAHp5x6C-105" value="Check internal cache for same question" style="html=1;dashed=0;whiteSpace=wrap;" vertex="1" parent="WIyWlLk6GJQsqaUBKTNV-1">
          <mxGeometry x="500" y="1475" width="160" height="60" as="geometry" />
        </mxCell>
        <mxCell id="kpQcfJ6aBJUCtAHp5x6C-110" style="edgeStyle=orthogonalEdgeStyle;rounded=0;orthogonalLoop=1;jettySize=auto;html=1;entryX=0.5;entryY=0;entryDx=0;entryDy=0;" edge="1" parent="WIyWlLk6GJQsqaUBKTNV-1" source="kpQcfJ6aBJUCtAHp5x6C-106" target="kpQcfJ6aBJUCtAHp5x6C-109">
          <mxGeometry relative="1" as="geometry" />
        </mxCell>
        <mxCell id="kpQcfJ6aBJUCtAHp5x6C-106" value="Build prompt (with history, user info, etc.)" style="rounded=0;whiteSpace=wrap;html=1;" vertex="1" parent="WIyWlLk6GJQsqaUBKTNV-1">
          <mxGeometry x="500" y="1610" width="160" height="70" as="geometry" />
        </mxCell>
        <mxCell id="kpQcfJ6aBJUCtAHp5x6C-112" style="edgeStyle=orthogonalEdgeStyle;rounded=0;orthogonalLoop=1;jettySize=auto;html=1;entryX=0;entryY=0.5;entryDx=0;entryDy=0;" edge="1" parent="WIyWlLk6GJQsqaUBKTNV-1" source="kpQcfJ6aBJUCtAHp5x6C-109" target="kpQcfJ6aBJUCtAHp5x6C-111">
          <mxGeometry relative="1" as="geometry" />
        </mxCell>
        <mxCell id="kpQcfJ6aBJUCtAHp5x6C-109" value="&amp;nbsp;Call AI Service (send prompt)" style="html=1;dashed=0;whiteSpace=wrap;" vertex="1" parent="WIyWlLk6GJQsqaUBKTNV-1">
          <mxGeometry x="500" y="1729" width="160" height="61" as="geometry" />
        </mxCell>
        <mxCell id="kpQcfJ6aBJUCtAHp5x6C-111" value="Receive prompt&amp;nbsp;" style="html=1;dashed=0;whiteSpace=wrap;" vertex="1" parent="WIyWlLk6GJQsqaUBKTNV-1">
          <mxGeometry x="720" y="1730" width="160" height="60" as="geometry" />
        </mxCell>
        <mxCell id="kpQcfJ6aBJUCtAHp5x6C-116" style="edgeStyle=orthogonalEdgeStyle;rounded=0;orthogonalLoop=1;jettySize=auto;html=1;" edge="1" parent="WIyWlLk6GJQsqaUBKTNV-1" source="kpQcfJ6aBJUCtAHp5x6C-113" target="kpQcfJ6aBJUCtAHp5x6C-115">
          <mxGeometry relative="1" as="geometry" />
        </mxCell>
        <mxCell id="kpQcfJ6aBJUCtAHp5x6C-113" value="Run NLP pipeline&amp;nbsp;" style="html=1;dashed=0;whiteSpace=wrap;" vertex="1" parent="WIyWlLk6GJQsqaUBKTNV-1">
          <mxGeometry x="950" y="1780" width="145" height="70" as="geometry" />
        </mxCell>
        <mxCell id="kpQcfJ6aBJUCtAHp5x6C-114" style="edgeStyle=orthogonalEdgeStyle;rounded=0;orthogonalLoop=1;jettySize=auto;html=1;entryX=-0.004;entryY=0.405;entryDx=0;entryDy=0;entryPerimeter=0;" edge="1" parent="WIyWlLk6GJQsqaUBKTNV-1" source="kpQcfJ6aBJUCtAHp5x6C-111" target="kpQcfJ6aBJUCtAHp5x6C-113">
          <mxGeometry relative="1" as="geometry" />
        </mxCell>
        <mxCell id="kpQcfJ6aBJUCtAHp5x6C-118" style="edgeStyle=orthogonalEdgeStyle;rounded=0;orthogonalLoop=1;jettySize=auto;html=1;entryX=0.5;entryY=1;entryDx=0;entryDy=0;" edge="1" parent="WIyWlLk6GJQsqaUBKTNV-1" source="kpQcfJ6aBJUCtAHp5x6C-115" target="kpQcfJ6aBJUCtAHp5x6C-117">
          <mxGeometry relative="1" as="geometry" />
        </mxCell>
        <mxCell id="kpQcfJ6aBJUCtAHp5x6C-115" value="Generate response" style="html=1;dashed=0;whiteSpace=wrap;" vertex="1" parent="WIyWlLk6GJQsqaUBKTNV-1">
          <mxGeometry x="920" y="1580" width="120" height="70" as="geometry" />
        </mxCell>
        <mxCell id="kpQcfJ6aBJUCtAHp5x6C-120" style="edgeStyle=orthogonalEdgeStyle;rounded=0;orthogonalLoop=1;jettySize=auto;html=1;" edge="1" parent="WIyWlLk6GJQsqaUBKTNV-1" source="kpQcfJ6aBJUCtAHp5x6C-117" target="kpQcfJ6aBJUCtAHp5x6C-119">
          <mxGeometry relative="1" as="geometry" />
        </mxCell>
        <mxCell id="kpQcfJ6aBJUCtAHp5x6C-117" value="Return JSON { reply, metadata }" style="html=1;dashed=0;whiteSpace=wrap;" vertex="1" parent="WIyWlLk6GJQsqaUBKTNV-1">
          <mxGeometry x="920" y="1460" width="120" height="65" as="geometry" />
        </mxCell>
        <mxCell id="kpQcfJ6aBJUCtAHp5x6C-122" style="edgeStyle=orthogonalEdgeStyle;rounded=0;orthogonalLoop=1;jettySize=auto;html=1;entryX=0.5;entryY=1;entryDx=0;entryDy=0;" edge="1" parent="WIyWlLk6GJQsqaUBKTNV-1" source="kpQcfJ6aBJUCtAHp5x6C-119" target="kpQcfJ6aBJUCtAHp5x6C-121">
          <mxGeometry relative="1" as="geometry" />
        </mxCell>
        <mxCell id="kpQcfJ6aBJUCtAHp5x6C-119" value="Receive AI JSON response" style="rounded=0;whiteSpace=wrap;html=1;" vertex="1" parent="WIyWlLk6GJQsqaUBKTNV-1">
          <mxGeometry x="920" y="1330" width="120" height="60" as="geometry" />
        </mxCell>
        <mxCell id="kpQcfJ6aBJUCtAHp5x6C-132" style="edgeStyle=orthogonalEdgeStyle;rounded=0;orthogonalLoop=1;jettySize=auto;html=1;" edge="1" parent="WIyWlLk6GJQsqaUBKTNV-1" source="kpQcfJ6aBJUCtAHp5x6C-121" target="kpQcfJ6aBJUCtAHp5x6C-128">
          <mxGeometry relative="1" as="geometry" />
        </mxCell>
        <mxCell id="kpQcfJ6aBJUCtAHp5x6C-133" style="edgeStyle=orthogonalEdgeStyle;rounded=0;orthogonalLoop=1;jettySize=auto;html=1;" edge="1" parent="WIyWlLk6GJQsqaUBKTNV-1" source="kpQcfJ6aBJUCtAHp5x6C-121">
          <mxGeometry relative="1" as="geometry">
            <mxPoint x="340.0000000000002" y="990.0000000000002" as="targetPoint" />
            <Array as="points">
              <mxPoint x="980" y="980" />
              <mxPoint x="341" y="980" />
              <mxPoint x="341" y="990" />
            </Array>
          </mxGeometry>
        </mxCell>
        <mxCell id="kpQcfJ6aBJUCtAHp5x6C-121" value="&amp;nbsp;Log conversation&amp;nbsp;" style="html=1;dashed=0;whiteSpace=wrap;" vertex="1" parent="WIyWlLk6GJQsqaUBKTNV-1">
          <mxGeometry x="920" y="1190" width="120" height="70" as="geometry" />
        </mxCell>
        <mxCell id="kpQcfJ6aBJUCtAHp5x6C-123" value="Schedular database" style="strokeWidth=2;html=1;shape=mxgraph.flowchart.database;whiteSpace=wrap;" vertex="1" parent="WIyWlLk6GJQsqaUBKTNV-1">
          <mxGeometry x="1350" y="1315" width="100" height="100" as="geometry" />
        </mxCell>
        <mxCell id="kpQcfJ6aBJUCtAHp5x6C-130" style="edgeStyle=orthogonalEdgeStyle;rounded=0;orthogonalLoop=1;jettySize=auto;html=1;" edge="1" parent="WIyWlLk6GJQsqaUBKTNV-1" source="kpQcfJ6aBJUCtAHp5x6C-128" target="kpQcfJ6aBJUCtAHp5x6C-123">
          <mxGeometry relative="1" as="geometry" />
        </mxCell>
        <mxCell id="kpQcfJ6aBJUCtAHp5x6C-128" value="&lt;code data-end=&quot;4525&quot; data-start=&quot;4490&quot;&gt;Insert/Update conversation record&lt;/code&gt;" style="html=1;dashed=0;whiteSpace=wrap;" vertex="1" parent="WIyWlLk6GJQsqaUBKTNV-1">
          <mxGeometry x="1140" y="1315" width="130" height="75" as="geometry" />
        </mxCell>
      </root>
    </mxGraphModel>
  </diagram>
</mxfile>
